<svg preserveAspectRatio="none" width="100%" height="100%" overflow="visible" style="display: block;" viewBox="0 0 32 34" fill="none" xmlns="http://www.w3.org/2000/svg">
<path id="Vector" d="M28.3163 0H11.6813C9.82968 0 8.33135 1.49833 8.33135 3.35V12.745L0.494682 20.4817C0.259874 20.7139 0.0993508 21.0106 0.0334848 21.3343C-0.0323811 21.6579 -0.000620495 21.9938 0.124736 22.2993C0.250092 22.6048 0.463393 22.8662 0.737568 23.0503C1.01174 23.2344 1.33443 23.3329 1.66468 23.3333V31.6667C1.66468 32.1087 1.84028 32.5326 2.15284 32.8452C2.4654 33.1577 2.88932 33.3333 3.33135 33.3333H29.998C30.44 33.3333 30.864 33.1577 31.1765 32.8452C31.4891 32.5326 31.6647 32.1087 31.6647 31.6667V3.34833C31.6647 1.49833 30.168 0 28.3163 0ZM14.868 21.8517V30H4.99802V20.72L9.97635 15.805L14.868 20.81V21.8517V21.8517ZM18.3313 11.6667H14.998V8.33333H18.3313V11.6667ZM24.998 25H21.6647V21.6667H24.998V25ZM24.998 18.3333H21.6647V15H24.998V18.3333ZM24.998 11.6667H21.6647V8.33333H24.998V11.6667Z" fill="var(--fill-0, #292E3D)"/>
</svg>
