<svg preserveAspectRatio="none" width="100%" height="100%" overflow="visible" style="display: block;" viewBox="0 0 32 34" fill="none" xmlns="http://www.w3.org/2000/svg">
<path id="Vector" d="M27.5 1.66667C26.3952 1.66755 25.3359 2.10682 24.5547 2.88803C23.7735 3.66924 23.3342 4.72854 23.3333 5.83334C23.3333 6.42834 23.4633 6.99334 23.69 7.50834L20.4317 11.1733C19.3248 10.4093 18.0116 10.0001 16.6667 10C15.4333 10 14.2933 10.36 13.3017 10.9433L9.51167 7.155L9.47334 7.19334C9.8 6.53 10 5.79167 10 5C10 4.0111 9.70676 3.0444 9.15735 2.22215C8.60794 1.39991 7.82705 0.759043 6.91342 0.380605C5.99979 0.00216643 4.99446 -0.0968503 4.02455 0.0960758C3.05465 0.289002 2.16373 0.765206 1.46447 1.46447C0.765206 2.16373 0.289002 3.05465 0.0960758 4.02455C-0.0968503 4.99446 0.00216643 5.99979 0.380605 6.91342C0.759043 7.82705 1.39991 8.60794 2.22215 9.15735C3.0444 9.70676 4.0111 10 5 10C5.79167 10 6.52834 9.8 7.19334 9.47334L7.155 9.51167L10.945 13.3C10.3327 14.3167 10.0063 15.4798 10 16.6667C10 18.3283 10.6333 19.8317 11.6417 21.0017L7.34667 25.295C6.86528 25.1023 6.35185 25.0022 5.83334 25C3.53667 25 1.66667 26.8683 1.66667 29.1667C1.66667 31.465 3.53667 33.3333 5.83334 33.3333C8.13 33.3333 10 31.465 10 29.1667C10 28.6317 9.89 28.1233 9.705 27.6517L14.435 22.9217C15.1367 23.1717 15.88 23.3333 16.6667 23.3333C20.3433 23.3333 23.3333 20.3433 23.3333 16.6667C23.3333 15.6067 23.0617 14.6183 22.62 13.7267L26.1483 9.755C26.575 9.90167 27.025 10 27.5 10C29.7983 10 31.6667 8.13167 31.6667 5.83334C31.6667 3.535 29.7983 1.66667 27.5 1.66667ZM16.6667 20C14.8283 20 13.3333 18.505 13.3333 16.6667C13.3333 14.8283 14.8283 13.3333 16.6667 13.3333C18.505 13.3333 20 14.8283 20 16.6667C20 18.505 18.505 20 16.6667 20Z" fill="var(--fill-0, white)"/>
</svg>
