<svg preserveAspectRatio="none" width="100%" height="100%" overflow="visible" style="display: block;" viewBox="0 0 34 27" fill="none" xmlns="http://www.w3.org/2000/svg">
<path id="Vector" d="M26.6667 20H23.3333V18.3333H10V20H6.66667V18.3333H0V26.6667H33.3333V18.3333H26.6667V20ZM30 6.66667H25V3.33333C25 1.5 23.5 0 21.6667 0H11.6667C9.83333 0 8.33333 1.5 8.33333 3.33333V6.66667H3.33333C1.5 6.66667 0 8.16667 0 10V16.6667H6.66667V13.3333H10V16.6667H23.3333V13.3333H26.6667V16.6667H33.3333V10C33.3333 8.16667 31.8333 6.66667 30 6.66667ZM21.6667 6.66667H11.6667V3.33333H21.6667V6.66667Z" fill="var(--fill-0, white)"/>
</svg>
