<svg preserveAspectRatio="none" width="100%" height="100%" overflow="visible" style="display: block;" viewBox="0 0 19 30" fill="none" xmlns="http://www.w3.org/2000/svg">
<path id="Vector" d="M0 26.3L0.416667 30L3.11667 27.4333L7.73333 14.7667C6.6 14.4833 5.6 13.9167 4.78333 13.1333L0 26.3ZM14.0167 13.1333C13.2 13.9167 12.1833 14.4833 11.0667 14.7667L15.6833 27.4333L18.3833 30L18.8167 26.3L14.0167 13.1333V13.1333ZM14.3 9.33333C14.8 6.73333 13.3 4.43333 11.0667 3.63333V1.66667C11.0667 0.75 10.3167 0 9.4 0C8.48333 0 7.73333 0.75 7.73333 1.66667V3.63333C5.8 4.33333 4.4 6.16667 4.4 8.33333C4.4 11.4 7.16667 13.8333 10.3333 13.25C12.3 12.8833 13.9167 11.3 14.3 9.33333V9.33333ZM9.4 10C8.48333 10 7.73333 9.25 7.73333 8.33333C7.73333 7.41667 8.48333 6.66667 9.4 6.66667C10.3167 6.66667 11.0667 7.41667 11.0667 8.33333C11.0667 9.25 10.3167 10 9.4 10Z" fill="var(--fill-0, #292E3D)"/>
</svg>
