<svg preserveAspectRatio="none" width="100%" height="100%" overflow="visible" style="display: block;" viewBox="0 0 15 22" fill="none" xmlns="http://www.w3.org/2000/svg">
<path id="Vector" d="M3.33333 15C3.33333 13.1667 4.83333 11.6667 6.66667 11.6667H9.16667C12.3833 11.6667 15 9.05 15 5.83333C15 2.61667 12.3833 0 9.16667 0H3.33333C2.41667 0 1.66667 0.75 1.66667 1.66667C1.66667 2.58333 2.41667 3.33333 3.33333 3.33333H9.16667C10.55 3.33333 11.6667 4.45 11.6667 5.83333C11.6667 7.21667 10.55 8.33333 9.16667 8.33333H6.66667C2.98333 8.33333 0 11.3167 0 15C0 18.6833 2.98333 21.6667 6.66667 21.6667H10V18.3333H6.66667C4.83333 18.3333 3.33333 16.8333 3.33333 15Z" fill="var(--fill-0, white)"/>
</svg>
