<svg preserveAspectRatio="none" width="100%" height="100%" overflow="visible" style="display: block;" viewBox="0 0 32 32" fill="none" xmlns="http://www.w3.org/2000/svg">
<path id="Vector" d="M14.3013 5.993H19.3013L24.7847 0.492997C24.9396 0.336783 25.1239 0.212793 25.327 0.128178C25.5301 0.0435637 25.748 0 25.968 0C26.188 0 26.4058 0.0435637 26.6089 0.128178C26.812 0.212793 26.9964 0.336783 27.1513 0.492997L31.4513 4.80966C31.7617 5.12193 31.936 5.54435 31.936 5.98466C31.936 6.42497 31.7617 6.84739 31.4513 7.15966L27.6347 10.993H14.3013V14.3263C14.3013 14.7684 14.1257 15.1923 13.8132 15.5048C13.5006 15.8174 13.0767 15.993 12.6347 15.993C12.1926 15.993 11.7687 15.8174 11.4561 15.5048C11.1436 15.1923 10.968 14.7684 10.968 14.3263V9.32633C10.968 8.44228 11.3192 7.59443 11.9443 6.96931C12.5694 6.34419 13.4173 5.993 14.3013 5.993ZM4.30132 14.3263V20.993L0.484654 24.8097C0.174236 25.1219 0 25.5444 0 25.9847C0 26.425 0.174236 26.8474 0.484654 27.1597L4.78465 31.4763C4.93959 31.6325 5.12393 31.7565 5.32703 31.8411C5.53012 31.9258 5.74797 31.9693 5.96799 31.9693C6.18801 31.9693 6.40585 31.9258 6.60895 31.8411C6.81205 31.7565 6.99638 31.6325 7.15132 31.4763L14.3013 24.3263H20.968C21.41 24.3263 21.8339 24.1507 22.1465 23.8382C22.4591 23.5256 22.6347 23.1017 22.6347 22.6597V20.993H24.3013C24.7433 20.993 25.1673 20.8174 25.4798 20.5048C25.7924 20.1923 25.968 19.7684 25.968 19.3263V17.6597H27.6347C28.0767 17.6597 28.5006 17.4841 28.8132 17.1715C29.1257 16.8589 29.3013 16.435 29.3013 15.993V14.3263H17.6347V15.993C17.6347 16.8771 17.2835 17.7249 16.6583 18.35C16.0332 18.9751 15.1854 19.3263 14.3013 19.3263H10.968C10.0839 19.3263 9.23609 18.9751 8.61096 18.35C7.98584 17.7249 7.63465 16.8771 7.63465 15.993V10.993L4.30132 14.3263Z" fill="var(--fill-0, #292E3D)"/>
</svg>
